<?xml version="1.0" encoding="utf-8"?>
<svg viewBox="103.287 314.302 92.442 69.519" width="92.442" height="69.519" xmlns="http://www.w3.org/2000/svg">
  <path id="Selection" stroke-width="1" d="M 140.469 322.487 C 141.67 321.666 142.464 321.819 142.956 321.074 C 143.589 320.114 142.848 318.431 144.122 317.296 C 144.919 316.585 145.851 316.965 146.635 316.621 C 147.423 316.271 147.55 315.58 148.103 315.034 C 148.9 314.249 150.342 314.143 151.371 314.489 C 153.055 315.057 152.746 316.312 154.201 316.745 C 154.855 316.942 155.604 316.748 156.215 317.126 C 157.542 317.942 157.246 320.302 157.611 321.795 C 160.254 321.904 162.294 325.154 164.779 325.864 C 165.621 326.104 166.459 325.743 167.273 325.534 C 167.273 325.534 167.273 343.922 167.273 343.922 C 167.294 347.072 168.488 347.19 171.012 345.792 C 171.012 345.792 171.012 350.777 171.012 350.777 C 171.024 351.695 171.018 352.446 171.555 353.243 C 172.193 354.193 173.764 355.101 174.752 355.704 C 174.752 355.704 181.297 359.635 181.297 359.635 C 183.435 360.97 184.064 362.107 186.595 361.062 C 186.595 361.062 186.595 368.854 186.595 368.854 C 188.604 369.263 191.659 371.499 193.451 372.698 C 194.096 373.128 195.265 373.822 195.6 374.521 C 196.017 375.404 195.312 377.001 195.009 377.892 C 194.604 379.083 193.246 382.858 192.321 383.505 C 191.763 383.89 190.687 383.814 190.023 383.814 C 190.023 383.814 108.992 383.814 108.992 383.814 C 108.44 383.814 107.414 383.858 106.929 383.637 C 105.728 383.087 104.442 379.479 104.006 378.204 C 103.716 377.354 102.995 375.708 103.415 374.878 C 103.763 374.2 105.208 373.426 105.875 373.007 C 105.875 373.007 110.55 369.904 110.55 369.904 C 111.158 369.525 112.358 368.975 112.725 368.413 C 113.113 367.82 113.043 366.748 113.043 366.049 C 113.047 364.377 112.897 362.68 113.355 361.062 C 115.597 362.216 116.067 361.275 118.029 359.977 C 118.029 359.977 125.51 355.347 125.51 355.347 C 127.492 354.057 128.58 353.91 128.626 351.402 C 128.626 351.402 128.626 346.103 128.626 346.103 C 128.626 346.103 132.365 346.725 132.365 346.725 C 132.365 346.725 132.365 325.223 132.365 325.223 C 136.184 327.133 137.473 324.54 140.469 322.487 Z M 136.419 328.962 C 136.419 328.962 136.419 348.285 136.419 348.285 C 136.419 348.285 141.405 348.285 141.405 348.285 C 141.405 348.285 141.405 328.962 141.405 328.962 C 141.405 328.962 136.419 328.962 136.419 328.962 Z M 143.586 328.962 C 143.586 328.962 143.586 348.285 143.586 348.285 C 143.586 348.285 148.885 348.285 148.885 348.285 C 148.885 348.285 148.885 328.962 148.885 328.962 C 148.885 328.962 143.586 328.962 143.586 328.962 Z M 151.065 328.962 C 151.065 328.962 151.065 348.285 151.065 348.285 C 151.065 348.285 156.052 348.285 156.052 348.285 C 156.052 348.285 156.052 328.962 156.052 328.962 C 156.052 328.962 151.065 328.962 151.065 328.962 Z M 158.546 328.962 C 158.546 328.962 158.546 348.285 158.546 348.285 C 158.546 348.285 163.532 348.285 163.532 348.285 C 163.532 348.285 163.532 328.962 163.532 328.962 C 163.532 328.962 158.546 328.962 158.546 328.962 Z" style="fill: rgb(255, 255, 255); stroke: rgba(0, 74, 135, 0);"/>
</svg>