<?xml version="1.0" encoding="utf-8"?>
<svg viewBox="18.492 147.672 468.184 142.324" width="468.184" height="142.324" xmlns="http://www.w3.org/2000/svg">
  <g transform="matrix(0.1, 0, 0, -0.1, -1.999994, 319.587804)" fill="#3f51b5" stroke="none">
    <path d="M2122 1702 c69 -185 565 -1379 570 -1374 5 5 538 1274 575 1370 4 10 -18 12 -102 10 l-108 -3 -179 -440 c-98 -242 -179 -444 -181 -450 -2 -5 -84 193 -183 440 l-180 450 -108 3 c-62 1 -106 -1 -104 -6z" style="stroke: #3f51b5; fill: #3f51b5;"/>
    <path d="M1375 1033 c-170 -366 -313 -674 -317 -685 -7 -18 -2 -19 98 -16 l106 3 68 150 69 150 282 0 282 0 65 -152 65 -153 108 0 108 0 -103 227 c-56 126 -194 434 -307 685 -112 252 -206 457 -209 458 -3 0 -144 -300 -315 -667z m411 9 l90 -207 -189 -3 c-105 -1 -192 -1 -194 1 -2 3 32 83 75 178 106 232 115 250 121 243 3 -3 47 -99 97 -212z" style="stroke: #3f51b5; fill: #3f51b5;"/>
    <path d="M3400 1005 l0 -695 310 0 310 0 0 100 0 100 -205 0 -205 0 0 595 0 595 -105 0 -105 0 0 -695z" style="stroke: #3f51b5; fill: #3f51b5;"/>
  </g>
  <g>
    <path style="stroke: #3f51b5; fill: #3f51b5;" d="M 53.143 225.034 C 53.143 225.034 89.881 188.387 89.861 188.387 C 89.841 188.387 72.414 171.143 72.419 171.143 C 72.424 171.143 18.884 225.045 18.889 225.032 C 18.894 225.019 72.828 279.106 72.813 279.107 C 72.798 279.108 89.525 262.049 89.517 262.058 C 89.509 262.067 53.194 225.125 53.143 225.034 Z"/>
  </g>
  <path style="stroke: #3f51b5; fill: #3f51b5;" d="M 451.604 217.767 L 422.045 188.908 C 422.045 188.908 439.363 171.524 439.371 171.517 C 439.379 171.51 485.622 218.218 485.608 218.201 C 485.594 218.184 439.47 264.239 439.47 264.239 C 439.47 264.239 422.491 247.765 422.499 247.757 C 422.507 247.749 451.684 217.682 451.604 217.767 Z"/>
</svg>