<?xml version="1.0" encoding="utf-8"?>
<svg viewBox="2.757 182.914 494.052 66.383" width="494.052" height="66.383" xmlns="http://www.w3.org/2000/svg">
  <g transform="matrix(0.077435, 0, 0, -0.077435, -88.599686, 272.527405)" fill="#000000" stroke="none" style="">
    <path d="M3523 1149 c-58 -17 -124 -114 -168 -248 l-17 -53 -49 5 -49 6 -40 -86 c-48 -102 -49 -133 -2 -45 18 34 43 68 55 77 20 14 67 21 67 10 0 -13 -88 -223 -131 -313 -59 -122 -110 -184 -148 -180 -21 2 -26 8 -25 28 1 14 4 32 8 41 10 23 -19 32 -39 13 -40 -40 -1 -104 63 -104 104 0 203 132 301 403 l43 117 42 0 c22 0 59 6 81 13 l40 12 -77 5 -77 5 41 102 c48 121 95 183 139 183 38 0 47 -22 26 -65 -9 -18 -13 -36 -10 -39 13 -13 43 -5 57 16 50 71 -26 127 -131 97z" style="fill: rgb(37, 47, 62);"/>
    <path d="M4357 847 c-64 -138 -117 -255 -117 -260 0 -4 16 -7 36 -7 33 0 36 3 62 60 l27 59 111 1 111 0 26 -60 c25 -59 26 -60 66 -60 l40 0 -106 233 c-57 127 -109 244 -115 260 -5 15 -13 27 -17 27 -3 0 -59 -114 -124 -253z m159 17 c19 -41 34 -79 34 -85 0 -5 -34 -9 -76 -9 -42 0 -74 4 -72 8 21 52 72 162 75 162 2 0 20 -34 39 -76z" style="fill: rgb(37, 47, 62);"/>
    <path d="M4855 1071 c-54 -33 -70 -59 -70 -111 0 -62 26 -92 120 -135 79 -36 92 -49 101 -92 8 -42 -35 -93 -81 -93 -38 0 -85 33 -85 60 0 25 -12 31 -50 24 -28 -6 -31 -10 -25 -33 8 -36 36 -72 76 -99 28 -20 43 -23 87 -20 91 8 147 66 147 153 0 72 -23 101 -113 146 -77 38 -112 65 -112 84 0 7 9 24 21 39 27 35 80 36 114 2 24 -24 28 -24 73 10 2 1 -4 14 -13 27 -35 54 -133 74 -190 38z" style="fill: rgb(37, 47, 62);"/>
    <path d="M5170 830 l0 -250 40 0 40 0 0 115 0 115 110 0 110 0 0 -115 0 -115 35 0 35 0 0 250 0 250 -35 0 -35 0 0 -100 0 -100 -110 0 -110 0 0 100 0 100 -40 0 -40 0 0 -250z" style="fill: rgb(37, 47, 62);"/>
    <path d="M5660 830 l0 -250 140 0 140 0 0 35 0 35 -100 0 -100 0 0 85 0 85 95 0 95 0 0 35 0 35 -95 0 -95 0 0 60 0 60 100 0 100 0 0 35 0 35 -140 0 -140 0 0 -250z" style="fill: rgb(37, 47, 62);"/>
    <path d="M5990 1075 c0 -6 199 -495 209 -513 4 -7 54 100 118 253 l111 266 -41 -3 -41 -3 -66 -165 c-36 -91 -70 -164 -75 -163 -5 1 -38 76 -74 167 l-66 166 -37 0 c-21 0 -38 -2 -38 -5z" style="fill: rgb(37, 47, 62);"/>
    <path d="M6490 830 l0 -250 40 0 40 0 0 250 0 250 -40 0 -40 0 0 -250z" style="fill: rgb(37, 47, 62);"/>
    <path d="M6690 830 l0 -250 110 0 110 0 0 35 0 35 -75 0 -75 0 0 215 0 215 -35 0 -35 0 0 -250z" style="fill: rgb(37, 47, 62);"/>
    <path d="M6990 830 l0 -250 110 0 110 0 0 35 0 35 -75 0 -75 0 0 215 0 215 -35 0 -35 0 0 -250z" style="fill: rgb(37, 47, 62);"/>
    <path d="M7290 830 l0 -250 135 0 135 0 0 35 0 35 -100 0 -100 0 0 85 0 85 100 0 100 0 0 35 0 35 -100 0 -100 0 0 60 0 60 100 0 100 0 0 35 0 35 -135 0 -135 0 0 -250z" style="fill: rgb(37, 47, 62);"/>
    <path d="M1342 1053 c-57 -20 -126 -91 -146 -150 -73 -214 112 -408 323 -338 51 17 51 17 51 60 l0 44 -42 -24 c-132 -76 -287 23 -276 176 10 144 153 224 276 154 l42 -24 0 44 c0 42 -1 43 -47 59 -57 20 -124 19 -181 -1z" style="fill: rgb(37, 47, 62);"/>
    <path d="M1815 1055 c-59 -22 -106 -65 -140 -126 -56 -104 -32 -237 57 -313 169 -145 430 -31 431 189 0 98 -47 183 -129 231 -56 33 -157 42 -219 19z m201 -91 c58 -47 76 -87 72 -165 -3 -54 -9 -73 -31 -103 -78 -101 -227 -101 -304 1 -25 33 -28 45 -28 113 0 68 3 80 28 113 43 57 90 78 164 74 52 -2 69 -8 99 -33z" style="fill: rgb(37, 47, 62);"/>
    <path d="M2260 809 l0 -251 108 4 c85 3 116 8 148 26 154 80 181 291 53 406 -58 52 -105 66 -223 66 l-86 0 0 -251z m201 170 c49 -17 98 -67 110 -114 34 -124 -52 -234 -183 -235 l-48 0 0 180 0 180 44 0 c23 0 58 -5 77 -11z" style="fill: rgb(37, 47, 62);"/>
    <path d="M2750 810 l0 -250 135 0 135 0 0 35 0 35 -100 0 -100 0 0 85 0 85 100 0 100 0 0 35 0 35 -100 0 -100 0 0 60 0 60 100 0 100 0 0 35 0 35 -135 0 -135 0 0 -250z" style="fill: rgb(37, 47, 62);"/>
    <path d="M3887 883 c-11 -10 -8 -51 4 -72 10 -14 6 -29 -20 -78 -36 -67 -66 -89 -106 -79 -20 5 -25 11 -20 23 25 67 12 153 -26 173 -24 13 -105 13 -132 -1 -76 -39 -137 -144 -137 -235 0 -127 160 -143 246 -24 31 43 35 45 74 42 52 -5 84 22 124 106 21 43 33 57 49 57 12 1 31 4 43 8 19 7 19 3 -9 -55 -35 -72 -50 -196 -27 -223 21 -25 58 -17 102 23 46 41 118 146 118 171 0 9 -18 -12 -39 -45 -41 -65 -73 -94 -105 -94 -30 0 -15 66 38 177 25 52 46 97 46 99 0 13 -60 1 -75 -16 -33 -36 -95 -16 -95 31 0 13 -7 19 -23 19 -13 0 -27 -3 -30 -7z m-179 -65 c18 -18 15 -36 -8 -43 -28 -9 -35 -47 -15 -85 16 -31 16 -32 -16 -81 -34 -54 -54 -69 -91 -69 -60 0 -65 73 -12 178 48 98 105 137 142 100z" style="fill: rgb(37, 47, 62);"/>
  </g>
</svg>